<?xml version="1.0" encoding="UTF-8" standalone="no"?>
<!-- Created with Inkscape (http://www.inkscape.org/) -->

<svg
   width="210mm"
   height="297mm"
   viewBox="0 0 210 297"
   version="1.1"
   id="svg1"
   xml:space="preserve"
   inkscape:version="1.4 (86a8ad7, 2024-10-11)"
   sodipodi:docname="icons.svg"
   xmlns:inkscape="http://www.inkscape.org/namespaces/inkscape"
   xmlns:sodipodi="http://sodipodi.sourceforge.net/DTD/sodipodi-0.dtd"
   xmlns="http://www.w3.org/2000/svg"
   xmlns:svg="http://www.w3.org/2000/svg"><sodipodi:namedview
     id="namedview1"
     pagecolor="#505050"
     bordercolor="#eeeeee"
     borderopacity="1"
     inkscape:showpageshadow="0"
     inkscape:pageopacity="0"
     inkscape:pagecheckerboard="0"
     inkscape:deskcolor="#d1d1d1"
     inkscape:document-units="mm"
     inkscape:zoom="1.5625561"
     inkscape:cx="421.10488"
     inkscape:cy="259.51068"
     inkscape:window-width="1920"
     inkscape:window-height="1057"
     inkscape:window-x="-8"
     inkscape:window-y="-8"
     inkscape:window-maximized="1"
     inkscape:current-layer="g50"
     showguides="true" /><defs
     id="defs1" /><g
     inkscape:label="Layer 1"
     inkscape:groupmode="layer"
     id="layer1"><path
       id="rect9"
       style="fill:#9a9996;stroke:none;stroke-width:6.87438;stroke-linecap:round;stroke-linejoin:round;stroke-miterlimit:5;stroke-dasharray:none;paint-order:stroke fill markers"
       d="m 43.610082,45.474994 c -0.0136,-0.0136 -2.1784,0.55637 -4.8106,1.26655 l -4.78581,1.29126 1.14017,1.14966 1.14037,1.14966 -2.21817,2.23162 -2.21816,2.23163 1.21308,1.22295 c 0.66722,0.67261 1.23726,1.22295 1.26679,1.22295 0.0296,0 1.04132,-0.99195 2.24852,-2.20443 l 2.19503,-2.20442 1.1443,1.14675 1.14451,1.14675 1.28227,-4.81311 c 0.70527,-2.64718 1.27126,-4.82419 1.2577,-4.83782 z m -28.480439,2.1e-4 c -0.01515,0.0153 0.550595,2.19269 1.257077,4.83864 l 1.284341,4.81083 1.144094,-1.14654 1.144089,-1.14654 2.193382,2.20484 c 1.206344,1.21265 2.240995,2.20383 2.299339,2.20256 0.05832,-10e-4 0.5864,-0.49162 1.173422,-1.08966 0.587011,-0.59803 1.104755,-1.15241 1.150485,-1.23208 0.0585,-0.10201 -0.569592,-0.80151 -2.123553,-2.36493 l -2.206599,-2.2202 1.146154,-1.15548 c 1.051321,-1.0601 1.125439,-1.16094 0.897469,-1.21879 -0.136678,-0.0347 -2.292366,-0.61369 -4.790357,-1.2867 -2.497987,-0.673 -4.554174,-1.2112 -4.569343,-1.19595 z m 19.153579,16.76003 -1.21949,1.27174 -1.21948,1.27175 2.22518,2.23682 2.2254,2.23702 -1.14017,1.14966 -1.13996,1.14945 4.73665,1.28731 c 2.60524,0.70803 4.77769,1.29136 4.82754,1.29625 0.0498,0.005 0.0694,-0.0509 0.0436,-0.12396 -0.0258,-0.0731 -0.61071,-2.25183 -1.30005,-4.84176 l -1.25334,-4.70909 -1.14389,1.14633 -1.14389,1.14634 -2.24914,-2.25904 z m -9.829408,0.003 -2.247487,2.25737 -2.247703,2.25758 -1.143882,-1.14633 -1.143885,-1.14634 -1.25336,4.70909 c -0.689339,2.58993 -1.276422,4.77418 -1.304788,4.85402 -0.03597,0.10123 0.0093,0.1269 0.149544,0.0849 0.110585,-0.0331 2.255989,-0.61267 4.767633,-1.28794 2.511642,-0.67528 4.604716,-1.22773 4.651344,-1.22773 0.04664,0 -0.437234,-0.52639 -1.075306,-1.1698 l -1.160204,-1.16979 2.245844,-2.25925 2.245628,-2.25944 -1.241579,-1.24828 z"
       inkscape:export-filename="fullscreen.png"
       inkscape:export-xdpi="96"
       inkscape:export-ydpi="96" /><path
       id="rect8"
       style="fill:#9a9996;stroke:none;stroke-width:6.87438;stroke-linecap:round;stroke-linejoin:round;stroke-miterlimit:5;stroke-dasharray:none;paint-order:stroke fill markers"
       d="m 53.386682,45.52704 -1.14227,1.14025 -1.14206,1.14005 2.21772,2.22247 c 1.21976,1.22236 2.21771,2.26878 2.21771,2.32552 0,0.0567 -0.53082,0.63622 -1.17959,1.28769 l -1.17959,1.18444 0.30851,0.0768 c 0.16967,0.0421 2.28032,0.61067 4.69032,1.26352 2.41,0.65287 4.46497,1.19231 4.5666,1.19869 0.10163,0.006 0.18477,-0.0369 0.18477,-0.096 0,-0.0592 -0.5251,-2.06922 -1.16681,-4.46684 -0.64171,-2.39762 -1.21569,-4.54504 -1.27548,-4.77204 l -0.10868,-0.41278 -1.18104,1.17928 c -0.64958,0.64857 -1.20405,1.17923 -1.23218,1.17907 -0.0281,-1.6e-4 -1.06975,-1.00151 -2.31464,-2.22516 z m 23.95192,0.0107 -2.21503,2.21979 c -1.21827,1.22091 -2.26212,2.2198 -2.3198,2.2198 -0.0577,0 -0.63643,-0.5307 -1.28601,-1.17928 l -1.18103,-1.17928 -0.10868,0.41278 c -0.0598,0.227 -0.63377,2.37443 -1.27549,4.77204 -0.64171,2.39762 -1.16681,4.4077 -1.16681,4.46684 0,0.0591 0.0493,0.10759 0.10951,0.10759 0.0602,0 2.16265,-0.54956 4.67217,-1.2212 2.50953,-0.67165 4.65189,-1.24767 4.76086,-1.28005 0.16212,-0.0482 -0.0154,-0.27327 -0.97667,-1.23854 -0.64614,-0.64882 -1.17485,-1.2262 -1.17485,-1.28294 0,-0.0567 0.99795,-1.10316 2.21772,-2.32551 l 2.21771,-2.22248 -1.13669,-1.13488 z m -14.44651,16.73725 c -0.0462,-0.0463 -7.78505,1.96333 -9.50583,2.46841 -0.16186,0.0475 0.0169,0.27397 0.97667,1.23772 0.64614,0.64883 1.17485,1.22704 1.17485,1.2848 0,0.0578 -0.99759,1.10297 -2.21689,2.32283 l -2.21689,2.21794 1.13319,1.13839 1.1334,1.13818 2.21957,-2.22061 c 1.22076,-1.22136 2.26581,-2.22063 2.32248,-2.22063 0.0567,0 0.63329,0.52941 1.28126,1.17639 0.96201,0.96054 1.18866,1.13995 1.2359,0.97795 0.51372,-1.76176 2.50847,-9.47513 2.46229,-9.52137 z m 4.92934,10e-4 c -0.0477,0.0478 1.94638,7.75594 2.46292,9.52033 0.0474,0.16207 0.27381,-0.0169 1.2363,-0.97795 0.64798,-0.64698 1.22544,-1.17638 1.28312,-1.17638 0.0577,0 1.10183,0.9992 2.32041,2.22041 l 2.21566,2.22041 1.15938,-1.1609 1.15938,-1.1611 -1.95045,-1.94826 c -1.0728,-1.07156 -2.09119,-2.0966 -2.26309,-2.27782 l -0.31263,-0.32936 1.19918,-1.20405 1.19898,-1.20406 -0.35862,-0.0981 c -4.40552,-1.20473 -9.30051,-2.47328 -9.35054,-2.42319 z"
       inkscape:export-filename="fullscreen_off.png"
       inkscape:export-xdpi="96"
       inkscape:export-ydpi="96" /><path
       id="rect7"
       style="fill:#9a9996;stroke:none;stroke-width:6.87438;stroke-linecap:round;stroke-linejoin:round;stroke-miterlimit:5;stroke-dasharray:none;paint-order:stroke fill markers"
       d="m 40.709222,80.604141 c -0.54003,-7.7e-4 -17.505767,4.27059 -17.852564,4.49442 -0.62369,0.40255 -0.602135,0.1179 -0.602135,7.96061 0,3.90157 -0.03196,7.076489 -0.07105,7.055329 -0.970128,-0.525329 -1.785024,-0.710019 -2.865432,-0.649499 -1.696135,0.095 -3.103236,0.760959 -4.365548,2.066529 -2.663363,2.75461 -1.963502,6.67848 1.359004,7.61977 0.681361,0.19304 2.05372,0.18884 2.810964,-0.008 2.225038,-0.57988 4.039977,-2.26178 4.648951,-4.30812 0.07414,-0.24912 0.118152,-0.47424 0.145451,-1.09631 L 38.913272,86.188261 c 0.28042,-0.0673 1.22418,-0.30215 1.23822,-0.30215 0.0722,0 0.10223,1.67885 0.10223,5.691 0,5.38154 -0.009,5.68723 -0.16578,5.61797 -1.66706,-0.73642 -3.03317,-0.78012 -4.67599,-0.1494 -3.74052,1.43607 -5.31511,5.863419 -2.92267,8.217579 1.67322,1.64644 4.56153,1.64236 6.93218,-0.01 1.31227,-0.91451 2.32156,-2.4947 2.53624,-3.97063 0.0683,-0.46931 0.0928,-3.813259 0.075,-10.218969 -0.0249,-8.98282 -0.0361,-9.53737 -0.19735,-9.79623 -0.23881,-0.38336 -0.71316,-0.66268 -1.12612,-0.66312 z m -6.69338,6.79225 -10.058126,11.77119 c 6.49e-4,-0.68971 0.002,-1.2115 0.002,-2.11094 v -7.14493 l 2.249873,-0.56444 c 3.237393,-0.81227 5.574743,-1.39489 7.806273,-1.95088 z" /><path
       id="rect4"
       style="fill:#9a9996;stroke:none;stroke-width:5.72865;stroke-linecap:round;stroke-linejoin:round;stroke-miterlimit:5;stroke-dasharray:none;paint-order:stroke fill markers"
       d="m 67.096872,113.05282 c -0.74276,0 -1.48567,0.35412 -1.91024,1.06238 -0.22459,0.37466 -0.2801,0.59768 -0.32058,1.28719 l -0.0489,0.83407 -0.79957,0.2706 c -2.82849,0.95725 -4.75473,3.10164 -5.63295,6.27083 -0.25023,0.90297 -0.25145,0.92729 -0.30468,5.57568 l -0.0534,4.6689 -1.47939,1.44483 -1.47939,1.44502 v 0.74727 0.74708 h 12.02911 12.02911 v -0.78454 -0.78455 l -1.49795,-1.46394 -1.49776,-1.46394 -0.0364,-4.61251 c -0.0346,-4.38107 -0.0472,-4.65215 -0.24935,-5.4056 -0.87988,-3.27958 -2.83025,-5.45317 -5.75763,-6.41643 l -0.71033,-0.23389 -0.0491,-0.83647 c -0.0405,-0.69224 -0.0957,-0.91455 -0.32058,-1.2896 -0.42457,-0.70826 -1.1673,-1.06238 -1.91006,-1.06238 z m -3.00727,25.77829 v 0.28136 c 0,0.43351 0.3538,1.25976 0.71771,1.67593 0.18051,0.20644 0.55005,0.49358 0.82117,0.63802 0.95063,0.50649 1.79335,0.52233 2.7981,0.0525 0.35682,-0.16686 0.74196,-0.44134 0.94508,-0.67363 0.37663,-0.43073 0.73249,-1.25311 0.73249,-1.69281 v -0.28136 h -3.00728 z"
       inkscape:export-filename="effects_on.png"
       inkscape:export-xdpi="96"
       inkscape:export-ydpi="96" /><path
       style="fill:#9a9996;stroke:none;stroke-width:0.280008;stroke-dasharray:none"
       d="m 21.123443,214.61652 h -3.534462 l -0.326511,-0.1725 c -0.201262,-0.10618 -0.391026,-0.28379 -0.494684,-0.46304 -0.158637,-0.2743 -0.167032,-0.3587 -0.148169,-1.48951 0.01799,-1.07717 0.03548,-1.21946 0.172745,-1.40305 0.322344,-0.43116 0.504652,-0.50703 1.313839,-0.54684 l 0.752882,-0.0371 1.426869,-2.33081 c 0.784779,-1.28195 1.402236,-2.35197 1.372126,-2.37783 -0.03009,-0.0259 -0.371457,-0.15553 -0.758553,-0.28814 -2.515351,-0.86171 -4.997158,-2.6122 -6.646948,-4.68829 -1.501177,-1.88907 -2.592191,-4.259 -2.990656,-6.49637 -0.08406,-0.47202 -0.166968,-0.93057 -0.18423,-1.019 -0.0207,-0.10597 -0.105732,-0.17712 -0.249425,-0.20868 -0.381036,-0.0837 -0.816272,-0.46142 -1.009247,-0.87588 -0.296939,-0.63777 -0.210463,-1.26115 0.244873,-1.76516 0.458254,-0.50723 0.573717,-0.5412 1.980253,-0.58264 l 1.257278,-0.037 0.06008,-0.33339 c 0.337051,-1.87014 0.986504,-3.50681 1.97355,-4.97352 3.988698,-5.92704 11.955089,-7.38965 17.788579,-3.26594 0.38709,0.27364 1.08927,0.88092 1.56039,1.34952 1.2863,1.27937 2.17482,2.60682 2.80665,4.19312 0.28703,0.72062 0.65973,2.05315 0.7802,2.78943 l 0.0455,0.27782 h 0.8099 0.8099 l 0.0202,-4.46365 0.0202,-4.46365 0.1922,-0.40747 c 0.24334,-0.51589 0.70266,-0.97457 1.24034,-1.23861 l 0.4196,-0.20605 2.11143,-0.0229 c 2.46584,-0.0268 2.61158,-0.003 3.11339,0.5007 0.81388,0.81746 0.62326,2.07136 -0.39791,2.61744 -0.28435,0.15205 -0.42401,0.16634 -1.84036,0.18837 l -1.53265,0.0238 -0.0232,1.33493 c -0.0225,1.30032 -0.0277,1.33858 -0.19804,1.47639 -0.22682,0.18348 -0.564,0.18047 -0.75116,-0.007 -0.13942,-0.13942 -0.14818,-0.24695 -0.14818,-1.82079 v -1.67262 l 0.21656,-0.21656 c 0.11911,-0.11911 0.26913,-0.21656 0.33339,-0.21656 0.096,0 0.11683,-0.0991 0.11683,-0.55564 v -0.55564 h -0.33577 c -0.18467,0 -0.44304,0.046 -0.57416,0.1023 -0.29053,0.12466 -0.68285,0.52721 -0.7895,0.81007 -0.0523,0.13869 -0.0787,1.71464 -0.0787,4.70443 -1.1e-4,4.13225 -0.0106,4.51675 -0.12965,4.75413 -0.19672,0.39223 -0.37097,0.44323 -1.51864,0.44446 l -1.01867,0.001 v 0.55564 0.55564 l 1.20389,-2.8e-4 c 0.66213,-2.3e-4 1.33713,-0.0374 1.49998,-0.0826 0.38655,-0.10731 0.88415,-0.60491 0.99146,-0.99146 0.0495,-0.17823 0.0824,-0.99324 0.0826,-2.04742 3.7e-4,-1.59124 0.0129,-1.76674 0.13704,-1.92005 0.1805,-0.22291 0.55549,-0.22577 0.77504,-0.006 0.15926,0.15948 0.16257,0.20318 0.16257,2.14231 v 1.97951 l -0.23029,0.48155 c -0.40499,0.84687 -1.06566,1.34366 -2.00085,1.50454 l -0.45309,0.0779 -0.12692,0.77894 c -0.74898,4.59672 -3.7671,8.65802 -8.00532,10.77229 -0.82619,0.41215 -2.15842,0.94252 -2.3675,0.94252 -0.0629,0 -0.11436,0.0378 -0.11436,0.0839 0,0.0462 0.63877,1.12967 1.4195,2.40778 l 1.4195,2.32382 h 0.65784 c 0.78497,0 1.13763,0.14365 1.40385,0.57185 0.15504,0.24939 0.17695,0.38622 0.19959,1.24672 0.0285,1.08416 -0.0427,1.46646 -0.33878,1.81832 -0.37056,0.44038 -0.34572,0.43781 -4.23232,0.43781 z m 9.243089,-1.11132 3.53499,-0.037 v -0.88902 -0.88903 l -8.093839,-0.0188 -8.093833,-0.0188 v 0.9264 0.92639 h 3.472023 z m 1.02702,-3.073 c -0.0627,-0.16349 -2.49446,-4.13506 -2.60088,-4.24784 -0.0758,-0.0803 -0.23313,-0.0762 -0.89942,0.0235 -0.50939,0.0762 -1.27263,0.12012 -2.067047,0.11893 -1.136411,-0.002 -1.524019,-0.0306 -2.631692,-0.19585 l -0.335049,-0.05 -1.324815,2.17476 c -0.728642,1.19612 -1.338293,2.19976 -1.354768,2.23032 -0.01646,0.0306 2.509301,0.0556 5.612838,0.0556 4.945093,0 5.637603,-0.0135 5.600833,-0.10937 z m -4.6861,-5.22622 c 1.25604,-0.0906 2.25239,-0.28568 3.38643,-0.66319 4.69071,-1.56147 8.1873,-5.50855 9.17548,-10.35762 0.21481,-1.05409 0.24529,-0.97959 -0.40076,-0.97959 h -0.55228 l -0.0458,0.27782 c -0.85457,5.179 -4.78422,9.29323 -9.92537,10.39157 -0.94628,0.20216 -3.110565,0.28156 -4.140638,0.1519 -2.023255,-0.25467 -4.104989,-1.088 -5.838532,-2.3372 -0.832709,-0.60006 -2.209742,-1.99521 -2.81654,-2.8536 -1.013517,-1.43373 -1.819083,-3.30702 -2.109121,-4.90458 l -0.131785,-0.72591 h -0.563592 -0.563593 l 0.06917,0.46303 c 0.11961,0.80069 0.492958,2.13638 0.828584,2.96434 1.954356,4.8212 6.527586,8.17164 11.69702,8.56946 0.414582,0.0319 0.78712,0.0625 0.827866,0.0679 0.04075,0.005 0.537324,-0.0235 1.103501,-0.0643 z m 0.93385,-2.33915 c 3.67106,-0.57237 6.9892,-3.05993 8.5463,-6.40699 0.51133,-1.09915 0.51142,-1.12701 0.002,-0.68744 -2.09538,1.8086 -5.23289,2.88881 -9.14372,3.14806 -1.250504,0.0829 -3.171977,0.0215 -4.083478,-0.13042 l -0.270667,-0.0451 0.215103,0.42644 c 0.252847,0.50128 0.288793,1.12601 0.09716,1.68844 -0.148326,0.4353 -0.666299,1.01811 -1.064414,1.19763 -0.167345,0.0755 -0.278156,0.16176 -0.246244,0.19177 0.09503,0.0893 1.19749,0.41425 1.864424,0.54945 1.333262,0.27027 2.646593,0.29219 4.083386,0.0682 z m -6.105691,-1.84259 c 0.453919,-0.29742 0.622025,-1.03791 0.334591,-1.47389 -0.21309,-0.32321 -0.519355,-0.49102 -0.89659,-0.49125 -0.830994,-3.8e-4 -1.32553,0.76933 -0.968268,1.50733 0.281437,0.58137 1.009334,0.79914 1.530267,0.45781 z m -2.746032,-0.91019 c 0.0019,-0.67135 0.251114,-1.21044 0.763133,-1.65148 l 0.376903,-0.32466 -0.681893,-0.24269 c -1.320041,-0.46981 -2.965488,-1.36809 -3.730542,-2.03657 -0.557814,-0.4874 -0.557241,-0.48744 -0.349539,0.0237 0.638469,1.57129 1.801164,3.19455 3.070953,4.28742 0.283942,0.24439 0.523736,0.44433 0.532879,0.44433 0.0091,0 0.01726,-0.22503 0.0181,-0.50007 z m 8.814683,-2.31667 c 0.76955,-0.0713 2.44479,-0.33727 2.55571,-0.40583 0.0281,-0.0174 -0.12183,-0.21012 -0.33319,-0.42833 -0.60571,-0.62537 -0.78515,-1.42194 -0.50552,-2.24421 0.18373,-0.54028 0.81812,-1.1464 1.3848,-1.32309 1.03271,-0.32199 2.13467,0.14274 2.60164,1.09719 0.22901,0.46808 0.30562,1.01887 0.19663,1.41362 -0.0442,0.16003 -0.0693,0.30204 -0.0558,0.31556 0.0351,0.0351 0.83315,-0.42345 1.36329,-0.78345 1.23965,-0.84184 2.15023,-2.02609 2.415,-3.1408 l 0.0484,-0.20374 h -6.16341 -6.163425 l 0.157469,0.16761 c 0.494348,0.52621 0.64175,1.54122 0.325318,2.24017 -0.66759,1.47457 -2.580176,1.78211 -3.634434,0.58441 -0.555916,-0.63155 -0.690463,-1.56322 -0.335798,-2.32518 0.104253,-0.22398 0.242448,-0.46568 0.307097,-0.53712 0.111888,-0.12364 -0.06319,-0.12989 -3.635244,-0.12989 -3.092073,0 -3.7528,0.0175 -3.7528,0.0995 0,0.0547 0.06623,0.29203 0.147181,0.52731 0.571478,1.66103 2.371393,3.13112 5.036926,4.11394 1.166066,0.42994 2.956422,0.82194 4.372918,0.95745 0.927205,0.0887 2.735812,0.0911 3.667232,0.005 z m 4.34157,-1.42612 c 0.69798,-0.46629 0.65063,-1.47447 -0.0869,-1.85055 -0.93456,-0.47654 -1.94565,0.59186 -1.40276,1.48227 0.32014,0.52507 1.00247,0.69375 1.48968,0.36828 z m -7.939298,-1.82205 c 0.339102,-0.24475 0.486133,-0.51669 0.486133,-0.89912 0,-0.81116 -0.84627,-1.31213 -1.577639,-0.93392 -0.509495,0.26347 -0.696356,0.99977 -0.383816,1.51239 0.296248,0.48591 1.026475,0.64462 1.475322,0.32065 z m -10.811893,-3.01055 v -0.55564 h -1.068863 c -1.066468,0 -1.069207,3.8e-4 -1.22241,0.1952 -0.249692,0.31743 -0.181369,0.63297 0.179834,0.83053 0.0855,0.0468 0.563378,0.082 1.129804,0.0833 l 0.981635,0.002 z m 24.046591,-0.74388 c -0.46176,-1.83979 -2.16192,-3.39224 -4.91344,-4.48654 -1.1466,-0.45601 -3.11333,-0.90749 -4.61924,-1.06037 l -0.4143,-0.0421 0.19204,0.38797 c 0.15559,0.31429 0.19205,0.49442 0.19205,0.94864 0,0.47766 -0.0331,0.6255 -0.22357,0.9983 -0.65983,1.29154 -2.393972,1.5754 -3.434233,0.56216 -0.653001,-0.63605 -0.843861,-1.55618 -0.497491,-2.39844 0.1091,-0.2653 0.143369,-0.42599 0.09084,-0.42598 -0.24975,4e-5 -1.958851,0.31564 -2.566195,0.47387 -2.617687,0.68197 -4.716782,1.87634 -5.822014,3.31267 -0.377389,0.49044 -0.757263,1.25371 -0.821752,1.65112 l -0.04331,0.26691 h 11.463929 11.463926 z m -20.786833,-4.27709 c 0.878194,-0.56702 1.893139,-1.05961 2.915592,-1.41504 0.117937,-0.041 0.08443,-0.0975 -0.236758,-0.39902 -0.461106,-0.43291 -0.692826,-0.92898 -0.705884,-1.51113 -0.0053,-0.23747 -0.03032,-0.43204 -0.05556,-0.43237 -0.02524,-2.8e-4 -0.391958,0.35828 -0.814942,0.7969 -1.082986,1.12302 -1.910425,2.38836 -2.439393,3.73037 l -0.147574,0.37439 0.4274,-0.36875 c 0.235069,-0.20281 0.710776,-0.55172 1.057123,-0.77535 z m 9.554363,0.96479 c 0.564,-0.2892 0.75049,-0.90767 0.44019,-1.45978 -0.380918,-0.67774 -1.331155,-0.72892 -1.801546,-0.097 -0.204681,0.27496 -0.233676,0.81067 -0.0612,1.13081 0.145294,0.2697 0.659539,0.59268 0.943665,0.59268 0.0846,0 0.300105,-0.075 0.478896,-0.16669 z m 10.13372,-0.96165 c -0.63235,-1.28195 -1.23868,-2.12917 -2.24516,-3.13711 -1.28046,-1.28232 -2.76292,-2.20203 -4.47279,-2.77489 -2.4252,-0.81251 -5.201107,-0.76626 -7.602259,0.12669 -0.303775,0.11297 -0.552318,0.22758 -0.552318,0.25469 0,0.0271 0.07932,0.0692 0.176274,0.0935 0.256567,0.0644 0.91621,0.68395 1.104854,1.03771 0.218418,0.40959 0.234779,1.50633 0.02815,1.88589 -0.07416,0.13621 -0.120879,0.26162 -0.103822,0.27867 0.01703,0.0171 0.294559,-0.0102 0.61667,-0.0605 0.805314,-0.12586 4.526551,-0.12537 5.401211,7.6e-4 3.25442,0.46912 5.91662,1.51628 7.65877,3.0125 0.21912,0.18819 0.41571,0.32484 0.43687,0.30368 0.0212,-0.0212 -0.17973,-0.48087 -0.44645,-1.02158 z m -15.109629,-2.45776 c 0.110033,-0.0572 0.283401,-0.19329 0.385271,-0.30231 0.157233,-0.16828 0.185211,-0.26917 0.185211,-0.66784 0,-0.39868 -0.02796,-0.49956 -0.185211,-0.66784 -0.552219,-0.59101 -1.365309,-0.5186 -1.762564,0.15695 -0.515624,0.87683 0.480282,1.94775 1.377293,1.48104 z m 25.244309,-2.96709 c 0.10002,-0.10002 0.18185,-0.26822 0.18185,-0.3738 0,-0.10557 -0.0818,-0.27378 -0.18185,-0.37379 -0.1764,-0.1764 -0.21411,-0.18185 -1.25945,-0.18185 h -1.07761 v 0.55564 0.55565 h 1.07761 c 1.04534,0 1.08305,-0.005 1.25945,-0.18185 z"
       id="path10"
       inkscape:export-filename="sorteio.png"
       inkscape:export-xdpi="96"
       inkscape:export-ydpi="96"
       sodipodi:nodetypes="cccsssscsscssssssscsssssscccccsscscsscsssscssscsssssccccccssssscsscssssscssssccccccccccccssscscssssscssscsssssscccssscccscsscsssssccsscsssscssssssssssssssssscccssssssssssssssssssssccscscccssscssssssssscccssssccsscsssssssssssssssscccssssssscsssssscccss" /><path
       id="path18"
       style="fill:#9a9996;stroke:none;stroke-width:6.87438;stroke-linecap:round;stroke-linejoin:round;stroke-miterlimit:5;stroke-dasharray:none;paint-order:stroke fill markers"
       d="m 69.403352,179.29498 c -0.24941,0.002 -0.53183,0.009 -0.87016,0.0209 -1.77353,0.0623 -2.59588,0.20676 -4.18752,0.73535 -4.98252,1.65474 -8.75751,6.00703 -9.76288,11.25609 -0.27424,1.43181 -0.25649,3.84052 0.0393,5.33161 0.78072,3.93599 3.01292,7.26929 6.32353,9.44316 1.11971,0.73524 2.96038,1.62198 3.50507,1.68859 0.0332,0.004 0.36589,-0.45171 0.7395,-1.01284 0.3736,-0.56114 0.66472,-1.0325 0.64694,-1.04738 -0.0178,-0.0149 -0.35047,-0.13001 -0.7395,-0.25577 -1.70392,-0.55082 -3.68191,-1.80254 -4.91657,-3.11134 -2.22651,-2.36022 -3.34149,-5.15683 -3.35251,-8.40881 -0.007,-2.10226 0.36789,-3.70795 1.30434,-5.58463 0.68267,-1.36809 1.18838,-2.05141 2.41032,-3.25698 2.32578,-2.29462 5.06051,-3.38508 8.48933,-3.38508 2.40509,0 4.65409,0.68761 6.69594,2.04699 1.82126,1.21251 3.16779,2.75283 4.17293,4.77369 3.27098,6.57639 0.0409,14.45335 -6.92212,16.87998 -0.4446,0.15495 -0.82365,0.29302 -0.84212,0.30669 -0.0318,0.0235 1.13341,1.81258 1.30197,1.99903 0.1,0.11058 1.20512,-0.30935 2.29191,-0.87074 3.97237,-2.05196 6.79799,-5.89512 7.67109,-10.4333 0.23445,-1.21865 0.23658,-3.69805 0.004,-4.9738 -0.53033,-2.91068 -1.87764,-5.54753 -3.90531,-7.64326 -1.22649,-1.26766 -2.36387,-2.12093 -3.8382,-2.87964 -1.45373,-0.74811 -2.73353,-1.17881 -4.29963,-1.44683 -0.7616,-0.13034 -1.21154,-0.17671 -1.95976,-0.1717 z m -1.36296,3.82755 c -0.83123,0 -2.77332,0.54724 -3.85222,1.08547 -0.53422,0.26651 -1.65205,0.99469 -2.06475,1.34499 l -0.24591,0.20861 2.36711,2.36868 c 1.30189,1.30277 2.37608,2.36868 2.38724,2.36868 0.0112,0 0.18312,-0.096 0.38208,-0.21334 0.19896,-0.11739 0.55391,-0.2703 0.78884,-0.33965 l 0.42727,-0.12611 0.0267,-3.34857 0.0264,-3.34876 z m 1.65485,0 v 3.32745 3.32725 l 0.53049,0.1569 c 0.29178,0.0863 0.66691,0.2481 0.83364,0.35958 l 0.30314,0.20269 2.34935,-2.34718 c 1.29213,-1.29099 2.34816,-2.37045 2.34677,-2.39868 -0.005,-0.10553 -1.2849,-1.00573 -1.93074,-1.35821 -1.1842,-0.64629 -3.24214,-1.2698 -4.19128,-1.2698 z m -8.84043,3.6373 -0.18453,0.22755 c -1.25062,1.54258 -2.19246,3.71293 -2.43381,5.60831 l -0.0677,0.53049 h 3.38863 c 3.1598,0 3.38856,-0.012 3.38863,-0.17683 5e-5,-0.0973 0.13867,-0.46982 0.30807,-0.82791 l 0.30808,-0.65108 -2.35369,-2.35527 z m 16.22969,0.0509 -2.34382,2.3375 -2.34362,2.3377 0.26426,0.54214 c 0.14532,0.29826 0.29338,0.69012 0.329,0.87074 l 0.0647,0.3284 h 3.3758 3.376 l -0.0671,-0.53049 c -0.24882,-1.96684 -1.17858,-4.19545 -2.27277,-5.44806 z m -8.09659,4.4508 c -0.84973,0 -1.35052,0.19914 -1.9122,0.76081 -0.56168,0.56168 -0.76101,1.06248 -0.76101,1.9122 0,1.14997 0.47623,1.9025 1.51117,2.38822 0.57939,0.27192 1.48277,0.31402 2.08903,0.0975 1.79142,-0.63979 2.31828,-3.01835 0.97336,-4.39397 -0.55544,-0.56811 -1.04402,-0.76476 -1.90035,-0.76476 z m -10.82486,3.27653 0.0635,0.48135 c 0.27231,2.05848 0.93889,3.74687 2.09811,5.31523 l 0.51056,0.69095 2.36829,-2.36829 2.36829,-2.36828 -0.224,-0.43912 c -0.12322,-0.24154 -0.27739,-0.62351 -0.34262,-0.84884 l -0.11861,-0.40971 -3.36178,-0.0267 z m 18.25182,0.10381 c -3.15649,0 -3.3852,0.0119 -3.38528,0.17683 -4e-5,0.0973 -0.13867,0.46983 -0.30807,0.82792 l -0.30788,0.65108 2.35329,2.35507 c 1.29442,1.29529 2.36099,2.35506 2.37007,2.35506 0.009,0 0.24336,-0.30693 0.52062,-0.68206 1.00812,-1.364 1.70192,-2.98268 1.99253,-4.64915 0.0824,-0.47252 0.14979,-0.89863 0.14979,-0.94693 0,-0.0483 -1.52328,-0.0878 -3.38507,-0.0878 z m -5.02887,2.64913 -0.46656,0.22972 c -0.25655,0.12629 -0.63687,0.284 -0.84528,0.35051 l -0.37892,0.12078 v 2.29724 2.29744 l 0.3055,0.22578 c 0.16804,0.12423 0.51572,0.54196 0.77266,0.92837 0.25694,0.3864 0.50351,0.70259 0.54806,0.70259 0.0445,0 0.45852,-0.11895 0.91989,-0.26446 1.26821,-0.39997 2.53831,-1.08493 3.61776,-1.95088 l 0.25261,-0.20268 -2.36296,-2.36711 z m -4.80111,0.005 -2.3529,2.35468 c -1.94913,1.95044 -2.33228,2.3799 -2.23152,2.5013 0.22323,0.26898 1.50248,1.07488 2.35704,1.48492 0.73056,0.35055 1.94089,0.77846 2.25579,0.79752 0.0556,0.003 0.31907,-0.33292 0.58556,-0.74719 0.26649,-0.41427 0.61889,-0.83255 0.78312,-0.92955 l 0.2986,-0.17644 v -2.29843 -2.29823 l -0.42945,-0.11348 c -0.2362,-0.0623 -0.61777,-0.21717 -0.84785,-0.34419 z m 2.40164,6.57891 c -0.0501,3.3e-4 -0.10052,0.008 -0.13914,0.0227 -0.19882,0.0763 -3.59822,5.33781 -3.59822,5.56923 0,0.42291 0.0915,0.4334 3.73874,0.4334 2.58455,0 3.52772,-0.0315 3.61736,-0.12118 0.0667,-0.0667 0.12138,-0.20703 0.12138,-0.31182 0,-0.22747 -3.40731,-5.49633 -3.60296,-5.57141 -0.0374,-0.0143 -0.0871,-0.0212 -0.13716,-0.0209 z m 7.5282,4.23036 c -0.0101,-0.0146 -0.35508,0.1265 -0.76654,0.31341 -0.41146,0.1869 -0.9185,0.39556 -1.12691,0.46378 -0.34585,0.11323 -0.37927,0.15648 -0.3813,0.49517 -0.003,0.5344 -0.32108,1.15812 -0.7618,1.49439 l -0.38188,0.29131 -3.79736,0.0304 c -2.08849,0.0167 -3.94592,0.003 -4.12773,-0.0304 -0.41119,-0.0753 -1.0192,-0.59731 -1.20033,-1.0308 -0.0751,-0.17971 -0.13637,-0.50112 -0.13637,-0.71404 0,-0.35624 -0.0302,-0.39768 -0.37893,-0.52063 -0.2084,-0.0735 -0.71686,-0.28821 -1.12987,-0.47701 -0.413,-0.18881 -0.78321,-0.30837 -0.82258,-0.26565 -0.0394,0.0427 -0.57376,0.83775 -1.1875,1.76655 -0.84571,1.27983 -1.13211,1.79779 -1.18336,2.13955 -0.12394,0.82649 0.32832,1.6387 1.11073,1.9941 0.38562,0.17517 0.87284,0.18552 8.74491,0.18552 7.89143,0 8.35795,-0.0101 8.74057,-0.1867 0.9055,-0.41792 1.37888,-1.44821 1.05586,-2.29784 -0.0754,-0.19835 -1.78312,-2.94557 -2.26961,-3.65111 z"
       sodipodi:nodetypes="scsssssscsscsssssscssssssssssscccssccccsccccscccsscccccsscccccccccccccccssssssscccccccccccsscccssssscccccccsssccccccsssscccccccscsssssssssccccsssssssssssss"
       inkscape:export-filename="sorteio.png"
       inkscape:export-xdpi="96"
       inkscape:export-ydpi="96" /><path
       style="fill:#9a9996;stroke:none;stroke-width:1.693;stroke-dasharray:none"
       d="m 27.672002,169.45089 c -1.29087,-0.17406 -2.876886,-0.72776 -4.054284,-1.4154 -2.899472,-1.69338 -4.820288,-4.37005 -5.540738,-7.72103 -0.230399,-1.07163 -0.231193,-3.42151 -0.0015,-4.47577 0.963674,-4.42345 4.1449,-7.78327 8.388512,-8.85944 1.2057,-0.30575 2.67589,-0.42136 3.82138,-0.30048 1.00579,0.10614 1.91188,0.28327 1.90946,0.37327 -7.7e-4,0.0285 -0.43917,0.15814 -0.97422,0.28809 -4.79328,1.1642 -7.50761,4.80401 -7.33179,9.83165 0.05328,1.52357 0.217322,2.21154 0.824971,3.45986 1.211969,2.48981 3.997309,4.54626 6.989689,5.16059 0.92081,0.18904 2.55359,0.12771 3.56894,-0.13406 0.97162,-0.2505 2.48101,-0.93213 3.29611,-1.48851 0.28928,-0.19746 0.52596,-0.33695 0.52596,-0.30997 0,0.13636 -0.42995,0.8709 -0.81868,1.39865 -1.44104,1.95637 -3.91437,3.4428 -6.70671,4.03061 -0.9864,0.20764 -2.95229,0.28933 -3.89708,0.16194 z m 3.31702,-6.17273 c -0.0292,-0.0473 0.007,-0.45667 0.0795,-0.90981 l 0.13262,-0.82389 -0.59362,-0.55145 c -0.40287,-0.37425 -0.57643,-0.59627 -0.54011,-0.69092 0.0364,-0.0949 0.28426,-0.17694 0.77546,-0.25671 0.39707,-0.0645 0.75736,-0.14037 0.80065,-0.16863 0.0433,-0.0283 0.24946,-0.36384 0.45816,-0.74571 0.2087,-0.38186 0.43346,-0.6943 0.49946,-0.6943 0.066,0 0.29128,0.31244 0.50061,0.6943 0.20932,0.38187 0.41468,0.71744 0.45634,0.74571 0.0417,0.0283 0.40062,0.10415 0.79768,0.16863 0.4414,0.0717 0.74035,0.16521 0.76931,0.24067 0.0285,0.0743 -0.20152,0.35386 -0.57849,0.70288 l -0.62586,0.57945 0.1692,0.82496 c 0.1081,0.52698 0.13815,0.85602 0.0832,0.91095 -0.0549,0.0549 -0.25762,0.0118 -0.56115,-0.11931 -1.10572,-0.47778 -0.9475,-0.46607 -1.72546,-0.12778 -0.77165,0.33554 -0.81945,0.34731 -0.89754,0.22096 z m 1.90013,-7.9994 c -0.0236,-0.0616 0.0391,-0.60857 0.13939,-1.2155 l 0.18231,-1.10351 -0.82088,-0.82432 c -0.45149,-0.45337 -0.82089,-0.87494 -0.82089,-0.93683 0,-0.15623 0.25464,-0.23497 1.3665,-0.42255 l 0.96336,-0.16253 0.54374,-1.02111 c 0.6966,-1.30817 0.72295,-1.30763 1.44358,0.0291 l 0.53622,0.99473 0.95525,0.16114 c 1.10572,0.18652 1.35792,0.26495 1.35963,0.42284 7.6e-4,0.0628 -0.39166,0.48112 -0.87187,0.92957 l -0.8731,0.81536 0.20064,0.9764 c 0.25588,1.24515 0.25808,1.46913 0.0144,1.46913 -0.10168,0 -0.60561,-0.17973 -1.11985,-0.39939 l -0.93498,-0.39939 -0.93499,0.39939 c -0.97223,0.4153 -1.25592,0.47668 -1.32846,0.2874 z"
       id="path19"
       inkscape:export-filename="dark.png"
       inkscape:export-xdpi="96"
       inkscape:export-ydpi="96" /><path
       style="fill:#9a9996;stroke-width:0.38191"
       d="m 67.324642,170.79536 c -0.21235,-0.19784 -0.22114,-0.28158 -0.22114,-2.10633 0,-2.13544 0.0322,-2.23476 0.72488,-2.23476 0.65082,0 0.68978,0.1272 0.68978,2.25232 0,1.80668 -0.009,1.89106 -0.22115,2.08877 -0.12163,0.11332 -0.34042,0.20603 -0.48618,0.20603 -0.14577,0 -0.36455,-0.0927 -0.48619,-0.20603 z m -6.11673,-1.69656 c -0.31374,-0.34667 -0.20167,-0.74699 0.60336,-2.15533 0.94925,-1.66063 0.98435,-1.70176 1.45244,-1.70176 0.4515,0 0.70733,0.24582 0.70733,0.67965 0,0.33289 -1.47664,3.00533 -1.78798,3.23592 -0.25185,0.18653 -0.78221,0.15472 -0.97515,-0.0585 z m 12.23068,0.0585 c -0.32413,-0.24006 -1.78798,-2.90373 -1.78798,-3.25347 0,-0.41777 0.26751,-0.6621 0.72489,-0.6621 0.44797,0 0.49193,0.0521 1.43488,1.70176 0.81757,1.43028 0.93306,1.85863 0.5858,2.17289 -0.21852,0.19776 -0.71706,0.21907 -0.95759,0.0409 z m -16.67675,-4.50455 c -0.19776,-0.21853 -0.21907,-0.71706 -0.0409,-0.95759 0.24007,-0.32414 2.90374,-1.78798 3.25348,-1.78798 0.41777,0 0.6621,0.2675 0.6621,0.72488 0,0.44494 -0.0448,0.48289 -1.69087,1.43337 -1.42509,0.82286 -1.86383,0.94086 -2.18378,0.58732 z m 9.38843,0.0286 c -1.90761,-0.47959 -3.58491,-1.84891 -4.4537,-3.63591 -0.52351,-1.07681 -0.68355,-1.9078 -0.63192,-3.28124 0.0706,-1.87778 0.63495,-3.17831 1.94984,-4.4932 0.80769,-0.80769 1.5205,-1.26227 2.59001,-1.6517 0.67553,-0.24597 0.87086,-0.26986 2.20633,-0.26986 1.33546,0 1.5308,0.0239 2.20632,0.26986 1.06951,0.38943 1.78233,0.84401 2.59002,1.6517 0.80769,0.80769 1.26226,1.52051 1.65169,2.59002 0.24597,0.67552 0.26987,0.87086 0.26987,2.20632 0,1.33546 -0.0239,1.5308 -0.26987,2.20632 -0.38943,1.06951 -0.844,1.78233 -1.65169,2.59002 -0.81317,0.81317 -1.53084,1.26895 -2.59002,1.64489 -0.61799,0.21934 -0.95102,0.26807 -2.00423,0.29328 -0.87487,0.0209 -1.44737,-0.0161 -1.86265,-0.1205 z m 10.48974,-0.63589 c -1.65332,-0.96528 -1.65485,-0.9666 -1.65485,-1.42771 0,-0.45627 0.24475,-0.71062 0.68377,-0.71062 0.33994,0 2.86345,1.38173 3.18128,1.74189 0.23203,0.26294 0.22779,0.8079 -0.008,1.02124 -0.35316,0.3196 -0.80355,0.19182 -2.20225,-0.6248 z m -21.55717,-5.49194 c -0.26321,-0.28252 -0.26321,-0.68984 0,-0.97236 0.19784,-0.21235 0.28158,-0.22115 2.10633,-0.22115 2.13543,0 2.23475,0.0322 2.23475,0.72489 0,0.65081 -0.12719,0.68977 -2.25231,0.68977 -1.80669,0 -1.89106,-0.009 -2.08877,-0.22115 z m 21.28212,0.0364 c -0.226,-0.24973 -0.21606,-0.85121 0.0176,-1.06264 0.15803,-0.14301 0.45742,-0.16723 2.06752,-0.16723 1.80669,0 1.89106,0.009 2.08877,0.22115 0.11332,0.12163 0.20603,0.34041 0.20603,0.48618 0,0.14577 -0.0927,0.36455 -0.20603,0.48618 -0.19784,0.21236 -0.28158,0.22115 -2.10632,0.22115 -1.71265,0 -1.91681,-0.0183 -2.06754,-0.18479 z M 58.211362,153.41 c -0.75027,-0.4397 -1.42097,-0.87628 -1.49045,-0.97019 -0.18651,-0.25212 -0.15472,-0.7824 0.0585,-0.97535 0.35321,-0.31965 0.76342,-0.2051 2.16622,0.60489 0.73546,0.42466 1.41678,0.84095 1.51404,0.92508 0.23949,0.20717 0.23472,0.84631 -0.008,1.06593 -0.35577,0.32198 -0.80247,0.1923 -2.24033,-0.65036 z m 16.94103,0.63281 c -0.22215,-0.24548 -0.2166,-0.85227 0.01,-1.0499 0.0973,-0.085 0.78348,-0.50126 1.52493,-0.92508 1.43028,-0.81757 1.85863,-0.93306 2.17289,-0.58581 0.21846,0.2414 0.21359,0.75076 -0.01,1.00368 -0.0973,0.11021 -0.78214,0.54722 -1.52197,0.97114 -1.42892,0.81877 -1.86008,0.93488 -2.17585,0.58597 z m -12.41603,-3.3266 c -0.085,-0.0973 -0.50127,-0.78347 -0.92509,-1.52493 -0.81757,-1.43028 -0.93306,-1.85863 -0.5858,-2.17289 0.21852,-0.19776 0.71706,-0.21906 0.95759,-0.0409 0.0938,0.0695 0.53446,0.75621 0.97926,1.52608 0.85676,1.48291 0.97511,1.90445 0.62393,2.22226 -0.24548,0.22216 -0.85227,0.21661 -1.04989,-0.01 z m 9.08148,-0.008 c -0.31601,-0.34919 -0.2024,-0.74413 0.62588,-2.17596 0.43621,-0.75406 0.85102,-1.44079 0.9218,-1.52608 0.18192,-0.2192 0.83983,-0.20054 1.04822,0.0298 0.31374,0.34667 0.20167,0.74699 -0.60336,2.15533 -0.42382,0.74146 -0.84011,1.42767 -0.92508,1.52493 -0.20915,0.23939 -0.84792,0.23463 -1.06746,-0.008 z m -4.54711,-1.21257 c -0.14302,-0.15803 -0.16723,-0.45742 -0.16723,-2.06752 0,-1.80669 0.009,-1.89106 0.22114,-2.08877 0.28253,-0.26321 0.68984,-0.26321 0.97237,0 0.21235,0.19784 0.22115,0.28158 0.22115,2.10632 0,1.71265 -0.0183,1.91681 -0.1848,2.06753 -0.24972,0.226 -0.85121,0.21607 -1.06263,-0.0176 z"
       id="path20"
       inkscape:export-filename="light.png"
       inkscape:export-xdpi="96"
       inkscape:export-ydpi="96" /><path
       id="path21"
       style="fill:#9a9996;stroke:none;stroke-width:5.72865;stroke-linecap:round;stroke-linejoin:round;stroke-miterlimit:5;stroke-dasharray:none;paint-order:stroke fill markers"
       d="m 28.657532,112.25303 c -0.74276,0 -1.48565,0.35411 -1.91022,1.06237 -0.2246,0.37467 -0.28003,0.59766 -0.32051,1.28717 l -0.049,0.83403 -0.799492,0.27058 c -2.828498,0.95725 -4.754756,3.10164 -5.632977,6.27083 -0.250224,0.90297 -0.251492,0.92736 -0.304718,5.57575 l -0.05348,4.66888 -1.479393,1.44485 -1.479393,1.44505 v 0.7472 0.74719 h 3.455532 l 14.661931,-19.14051 c -0.86525,-0.7945 -1.89804,-1.39613 -3.09812,-1.79102 l -0.71049,-0.23387 -0.0489,-0.8366 c -0.0405,-0.69223 -0.0959,-0.91447 -0.32071,-1.28953 -0.42457,-0.70826 -1.16726,-1.06237 -1.91002,-1.06237 z m 6.08828,5.21339 c 0.7693,0.70641 1.40378,1.56768 1.89877,2.57926 l 3.99906,-5.22069 -2.44171,-1.87056 z m 1.89877,2.57926 -12.686131,16.56125 h 4.699081 12.02913 v -0.78469 -0.78449 l -1.49794,-1.464 -1.49775,-1.4638 -0.0363,-4.61264 c -0.0346,-4.38106 -0.0473,-4.65217 -0.24946,-5.40562 -0.19847,-0.73974 -0.45429,-1.42 -0.76061,-2.04601 z m -12.686131,16.56125 h -3.874523 l -3.172717,4.14175 2.441902,1.87035 z m 1.691747,1.42433 v 0.28144 c 0,0.43351 0.353879,1.25978 0.717784,1.67596 0.18052,0.20643 0.55009,0.49361 0.82121,0.63805 0.95064,0.50649 1.79338,0.52233 2.79813,0.0525 0.35682,-0.16686 0.74183,-0.44149 0.94495,-0.67378 0.37663,-0.43073 0.73259,-1.25302 0.73259,-1.69273 v -0.28144 h -3.00733 z"
       inkscape:export-filename="effects_off.png"
       inkscape:export-xdpi="96"
       inkscape:export-ydpi="96" /><path
       id="path24"
       style="fill:#9a9996;stroke:none;stroke-width:6.87438;stroke-linecap:round;stroke-linejoin:round;stroke-miterlimit:5;stroke-dasharray:none;paint-order:stroke fill markers"
       d="m 76.742172,80.60414 c -0.54002,-7.7e-4 -17.50573,4.27063 -17.85253,4.49446 -0.62369,0.40255 -0.60225,0.11795 -0.60225,7.96065 0,3.90158 -0.032,7.07653 -0.071,7.05537 -0.97013,-0.52533 -1.78508,-0.71004 -2.86549,-0.64952 -1.69614,0.095 -3.10317,0.76095 -4.36549,2.06651 -2.66336,2.75462 -1.96349,6.67834 1.35902,7.61963 0.68136,0.19305 2.05366,0.189 2.8109,-0.008 2.22504,-0.57989 4.03997,-2.26187 4.64895,-4.3082 0.1808,-0.60755 0.18835,-0.92436 0.18835,-7.77808 v -7.1449 l 2.2499,-0.56446 c 8.35271,-2.09571 13.85406,-3.4617 13.94185,-3.4617 0.0722,0 0.10231,1.67898 0.10231,5.69112 0,5.38154 -0.009,5.68719 -0.16578,5.61794 -1.66705,-0.73642 -3.03313,-0.7802 -4.67596,-0.14948 -3.74051,1.43607 -5.3151,5.86341 -2.92266,8.21757 1.67323,1.64645 4.56151,1.64234 6.93216,-0.01 1.31228,-0.91452 2.32146,-2.49456 2.53614,-3.97049 0.0683,-0.46932 0.0929,-3.81336 0.0751,-10.21907 -0.0249,-8.98282 -0.0362,-9.53726 -0.19742,-9.79612 -0.23881,-0.38336 -0.71311,-0.66271 -1.12607,-0.66315 z"
       inkscape:export-filename="music_on.png"
       inkscape:export-xdpi="96"
       inkscape:export-ydpi="96" /><path
       style="fill:#9a9996;stroke-width:0.38191"
       d="m 51.810832,37.103795 -0.24802,-0.24802 V 24.417806 11.979839 l 0.24802,-0.248023 0.24803,-0.248028 h 6.82526 6.82527 v 2.530768 2.530769 l 0.24802,0.248027 0.24803,0.248024 h 2.53231 2.53232 l -0.0268,2.905101 -0.0268,2.905101 -0.60628,0.06148 c -1.39973,0.141948 -2.56732,0.701061 -3.60869,1.728066 l -0.6957,0.686101 h -3.58681 -3.58682 l -0.24802,0.248024 c -0.30312,0.303111 -0.31642,0.64825 -0.0386,1.001437 l 0.20943,0.266244 h 3.23795 3.23796 l -0.0636,0.227355 c -0.035,0.125045 -0.11664,0.557023 -0.18147,0.959946 l -0.11787,0.732591 h -2.91726 c -2.36271,0 -2.97161,0.02811 -3.20314,0.147834 -0.43506,0.224979 -0.54795,0.723829 -0.25239,1.115259 0.14543,0.19261 0.30217,0.20447 3.3389,0.25262 l 3.18632,0.0505 0.28283,0.72717 c 0.83757,2.15343 2.75457,3.63109 5.00699,3.85951 l 0.60628,0.0615 0.0291,0.93548 c 0.0274,0.88147 0.0145,0.95001 -0.22276,1.1873 l -0.25183,0.25183 h -9.35604 -9.35603 z m 5.11844,-3.58021 c 0.24829,-0.30663 0.24217,-0.62672 -0.0183,-0.95787 -0.19639,-0.24967 -0.26198,-0.26624 -1.05366,-0.26624 -0.79168,0 -0.85727,0.0166 -1.05366,0.26624 -0.23264,0.29576 -0.26347,0.55549 -0.10177,0.85762 0.16294,0.30446 0.47499,0.39205 1.29271,0.36284 0.63952,-0.0228 0.77029,-0.0596 0.93468,-0.26259 z m 6.5662,0.003 c 0.25006,-0.30911 0.24459,-0.62852 -0.0165,-0.96038 l -0.20943,-0.26625 h -2.10732 -2.10731 l -0.20943,0.26625 c -0.33341,0.42385 -0.22751,0.96155 0.22662,1.15072 0.12142,0.0506 1.12291,0.0821 2.22555,0.0701 1.97271,-0.0215 2.00789,-0.0257 2.19777,-0.26042 z m -6.58111,-3.46871 c 0.35199,-0.37781 0.25711,-0.907565 -0.20538,-1.146729 -0.60188,-0.311241 -1.88796,-0.116066 -2.05199,0.311406 -0.11672,0.304153 -0.0637,0.613153 0.14326,0.835323 0.18044,0.19368 0.31171,0.22114 1.05706,0.22114 0.74534,0 0.87661,-0.0275 1.05705,-0.22114 z m -0.003,-3.480699 c 0.27782,-0.353186 0.26451,-0.698326 -0.0386,-1.001436 -0.21977,-0.21977 -0.33541,-0.248024 -1.01507,-0.248024 -0.67965,0 -0.79529,0.02826 -1.01506,0.248024 -0.30311,0.30311 -0.31641,0.64825 -0.0386,1.001436 0.19639,0.249674 0.26198,0.266245 1.05366,0.266245 0.79168,0 0.85727,-0.01658 1.05366,-0.266245 z m -0.0386,-3.41738 c 0.3031,-0.303106 0.31641,-0.64825 0.0386,-1.001432 -0.19639,-0.249674 -0.26198,-0.266245 -1.05366,-0.266245 -0.79168,0 -0.85727,0.01657 -1.05366,0.266245 -0.27781,0.353182 -0.26451,0.698326 0.0386,1.001432 0.21977,0.21977 0.33541,0.248028 1.01506,0.248028 0.67966,0 0.7953,-0.02826 1.01507,-0.248028 z m 10.60993,0 c 0.30311,-0.303106 0.31642,-0.64825 0.0386,-1.001432 l -0.20943,-0.266245 h -4.12822 -4.12826 l -0.20942,0.266245 c -0.27782,0.353182 -0.26452,0.698326 0.0386,1.001432 l 0.24803,0.248028 h 4.05106 4.05107 z M 56.709362,19.82439 c 0.46249,-0.23916 0.55738,-0.768911 0.20539,-1.146723 -0.18044,-0.193686 -0.31171,-0.221149 -1.05706,-0.221149 -0.74534,0 -0.87661,0.02746 -1.05705,0.221149 -0.35368,0.379618 -0.24178,0.909618 0.24868,1.177875 0.29349,0.160532 1.32687,0.141143 1.66004,-0.03116 z m 10.60994,0 c 0.46249,-0.23916 0.55737,-0.768911 0.20538,-1.146723 -0.20546,-0.220538 -0.21739,-0.221149 -4.34108,-0.221149 -4.12369,0 -4.13562,7.64e-4 -4.34109,0.221149 -0.35366,0.379618 -0.24177,0.909618 0.24869,1.177875 0.13605,0.07442 1.46672,0.111541 4.07216,0.113611 3.20334,0.0027 3.91931,-0.02238 4.15594,-0.144763 z m -10.40795,-3.655054 c 0.2611,-0.331933 0.26651,-0.651348 0.0163,-0.960389 -0.17615,-0.217532 -0.27041,-0.238549 -1.06992,-0.238549 -0.7995,0 -0.89377,0.02101 -1.06992,0.238549 -0.25025,0.309041 -0.24484,0.628456 0.0163,0.960389 0.19639,0.24967 0.26198,0.266245 1.05366,0.266245 0.79168,0 0.85726,-0.01658 1.05366,-0.266245 z m 7.07329,0 c 0.2611,-0.331933 0.26651,-0.651348 0.0163,-0.960389 -0.19316,-0.238545 -0.1932,-0.238549 -2.58562,-0.238549 -2.39243,0 -2.39247,4e-6 -2.58563,0.238549 -0.25025,0.309041 -0.24484,0.628456 0.0163,0.960389 l 0.20943,0.266245 h 2.35993 2.35994 z m 5.83436,17.032599 c -2.26444,-0.77895 -3.53819,-3.11326 -2.94386,-5.395035 0.53677,-2.060783 2.25786,-3.388607 4.39222,-3.388607 2.12818,0 3.85701,1.333794 4.39222,3.388607 0.48301,1.854395 -0.33156,3.915305 -1.95176,4.938095 -1.0684,0.67445 -2.69941,0.86609 -3.88882,0.45694 z m 2.53462,-3.76886 c 1.11312,-1.116253 1.23782,-1.277114 1.23782,-1.596681 0,-0.435648 -0.28447,-0.723513 -0.71498,-0.723513 -0.25261,0 -0.46992,0.160994 -1.20525,0.892921 l -0.89708,0.892921 -0.41048,-0.370846 c -0.47206,-0.426479 -0.86099,-0.479931 -1.19922,-0.164813 -0.39871,0.371449 -0.30284,0.830677 0.30935,1.481931 0.66962,0.71234 1.05954,0.96114 1.38939,0.88654 0.1414,-0.032 0.7976,-0.60366 1.49045,-1.29846 z m -5.12814,-15.69942 v -1.792501 l 1.76832,1.766157 c 0.97258,0.971384 1.76833,1.778013 1.76833,1.792502 0,0.01448 -0.79575,0.02635 -1.76833,0.02635 h -1.76832 z"
       id="path25"
       inkscape:export-filename="results.png"
       inkscape:export-xdpi="96"
       inkscape:export-ydpi="96" /><path
       style="fill:#9a9996;stroke-width:0.38191"
       d="m 15.307002,30.752223 c -0.558696,-0.14837 -1.336708,-0.89197 -1.531551,-1.46381 -0.782782,-2.29734 1.930704,-4.167665 3.766599,-2.59621 1.422469,1.21758 0.872985,3.58165 -0.946377,4.07164 -0.476081,0.12822 -0.772165,0.12555 -1.288671,-0.0116 z m 6.592984,0.0272 c -2.120372,-0.64499 -2.421936,-3.4278 -0.476517,-4.39724 l 0.51685,-0.25756 7.836563,0.001 7.83657,10e-4 0.51706,0.24076 c 1.09479,0.50976 1.59525,1.73653 1.19164,2.92106 -0.20892,0.61316 -0.96924,1.31307 -1.59853,1.47153 -0.52039,0.13103 -15.396691,0.14934 -15.823636,0.0195 z m -6.332327,-7.29555 c -0.817203,-0.144049 -1.377496,-0.594542 -1.742605,-1.401125 -0.275205,-0.607966 -0.264798,-1.244614 0.03055,-1.869369 0.428339,-0.906058 1.157627,-1.378568 2.127724,-1.378568 0.715711,0 1.30169,0.259267 1.758245,0.777939 0.812353,0.922881 0.828523,2.158826 0.04029,3.079695 -0.563779,0.658649 -1.357667,0.942408 -2.214211,0.791428 z m 6.452644,0.0084 c -0.923627,-0.185669 -1.629492,-0.895479 -1.844091,-1.854402 -0.09982,-0.446063 -0.09183,-0.623861 0.05002,-1.111782 0.199655,-0.6868 0.816256,-1.370892 1.431387,-1.588073 0.577727,-0.203974 15.665793,-0.206117 16.242373,-0.0023 0.8647,0.30565 1.58085,1.319323 1.58085,2.237599 0,0.881467 -0.62179,1.813132 -1.46321,2.192411 -0.37683,0.169862 -0.9171,0.183278 -7.98271,0.198207 -4.168186,0.0088 -7.774764,-0.02345 -8.014618,-0.07165 z m -7.053209,-7.513001 c -1.525356,-0.710246 -1.802645,-2.698794 -0.535224,-3.838313 1.921703,-1.727776 4.781788,0.382742 3.691553,2.724068 -0.560162,1.202978 -1.928408,1.685995 -3.156329,1.114245 z m 6.456375,-0.01482 c -1.76822,-0.881143 -1.72681,-3.294161 0.07298,-4.252762 0.334496,-0.178157 0.767131,-0.190081 7.982713,-0.219992 5.38748,-0.02234 7.7838,0.0019 8.15573,0.08218 1.01621,0.219579 1.85629,1.275335 1.84349,2.316791 -0.0107,0.869312 -0.56115,1.722292 -1.34787,2.088613 l -0.51706,0.240756 -7.83657,0.0011 -7.836566,0.0011 z"
       id="path26"
       inkscape:export-filename="menu.png"
       inkscape:export-xdpi="300"
       inkscape:export-ydpi="300" /><path
       style="fill:#9a9996;stroke-width:0.38191"
       d="m 92.337712,37.19628 c -0.23188,-0.16241 -0.42776,-0.72665 -0.63759,-1.83659 -0.094,-0.49728 -0.16376,-0.64206 -0.33363,-0.69251 -0.11811,-0.0351 -0.46902,-0.17574 -0.77979,-0.31258 l -0.56503,-0.24879 -0.94775,0.61291 c -0.52127,0.33709 -1.06135,0.6129 -1.20018,0.6129 -0.36449,0 -3.84582,-3.48133 -3.84582,-3.84582 0,-0.13883 0.27581,-0.67891 0.61291,-1.20017 l 0.6129,-0.947758 -0.24879,-0.565032 c -0.13684,-0.310767 -0.2775,-0.661674 -0.31258,-0.779795 -0.0505,-0.169866 -0.19522,-0.23961 -0.69252,-0.333625 -1.10993,-0.209833 -1.67416,-0.405711 -1.83658,-0.637591 -0.23189,-0.331074 -0.23189,-4.875493 0,-5.206571 0.16242,-0.231876 0.72665,-0.427758 1.83658,-0.637591 0.4973,-0.09401 0.64207,-0.163759 0.69252,-0.333621 0.0351,-0.118121 0.17574,-0.469027 0.31258,-0.779795 l 0.24879,-0.565036 -0.6129,-0.947751 c -0.3371,-0.521265 -0.61291,-1.061343 -0.61291,-1.200175 0,-0.364488 3.48133,-3.845822 3.84582,-3.845822 0.13883,0 0.67891,0.275808 1.20018,0.612908 l 0.94775,0.612908 0.56503,-0.248795 c 0.31077,-0.136834 0.66168,-0.277496 0.77979,-0.312578 0.16987,-0.05045 0.23962,-0.195225 0.33363,-0.692517 0.20983,-1.109934 0.40571,-1.674167 0.63759,-1.836582 0.18605,-0.130316 0.6201,-0.156282 2.61214,-0.156282 2.96888,0 2.7969,-0.08313 3.12728,1.511615 0.19346,0.933888 0.26427,1.122185 0.44176,1.174843 0.11625,0.03449 0.46563,0.174667 0.7764,0.311501 l 0.56503,0.248795 0.947758,-0.612908 c 0.52126,-0.3371 1.06134,-0.612908 1.20017,-0.612908 0.36449,0 3.84582,3.481334 3.84582,3.845822 0,0.138832 -0.27581,0.67891 -0.6129,1.200175 l -0.61291,0.947751 0.2488,0.565036 c 0.13683,0.310768 0.27749,0.661674 0.31257,0.779795 0.0505,0.169862 0.19523,0.23961 0.69252,0.333621 1.10993,0.209833 1.67417,0.405715 1.83658,0.637591 0.2319,0.331078 0.2319,4.875497 0,5.206571 -0.16241,0.23188 -0.72665,0.427758 -1.83658,0.637591 -0.49729,0.09401 -0.64207,0.163759 -0.69252,0.333625 -0.0351,0.118121 -0.17574,0.469028 -0.31257,0.779795 l -0.2488,0.565032 0.61291,0.947758 c 0.33709,0.52126 0.6129,1.06134 0.6129,1.20017 0,0.36449 -3.48133,3.84582 -3.84582,3.84582 -0.13883,0 -0.67891,-0.27581 -1.20017,-0.6129 l -0.947758,-0.61291 -0.56503,0.24879 c -0.31077,0.13684 -0.66015,0.27701 -0.7764,0.3115 -0.17749,0.0527 -0.2483,0.24095 -0.44176,1.17484 -0.33038,1.59475 -0.1584,1.51162 -3.12728,1.51162 -1.99204,0 -2.42609,-0.026 -2.61214,-0.15628 z m 3.533,-8.242201 c 0.89732,-0.188732 1.59846,-0.58135 2.31146,-1.294357 0.77211,-0.772104 1.14731,-1.486963 1.32533,-2.525101 0.25069,-1.461905 -0.21225,-2.844175 -1.32533,-3.957255 -0.7721,-0.772104 -1.48696,-1.147304 -2.5251,-1.325327 -1.4619,-0.25069 -2.84417,0.21225 -3.95725,1.325327 -1.11308,1.11308 -1.57602,2.49535 -1.32533,3.957255 0.17817,1.039009 0.55317,1.753135 1.32533,2.523902 1.17719,1.17506 2.61718,1.622349 4.17089,1.295556 z"
       id="path27"
       inkscape:export-filename="config.png"
       inkscape:export-xdpi="96"
       inkscape:export-ydpi="96" /><path
       id="path28"
       style="fill:#9a9996;stroke-width:0.383853"
       d="m 116.82972,12.087527 -0.54311,0.283657 c -0.33898,0.177086 -0.65832,0.447533 -0.84959,0.719657 l -0.30627,0.435999 -0.0267,11.432781 -0.0266,11.432978 0.21482,0.443736 c 0.23955,0.494839 0.71178,0.901088 1.28559,1.105862 0.30572,0.109081 1.96985,0.136985 8.41807,0.140442 l 8.03722,0.0049 0.54292,-0.283856 c 0.33896,-0.177076 0.65833,-0.447564 0.84959,-0.71966 l 0.30647,-0.435795 0.002,-0.879938 c -0.19308,0.16612 -0.37483,0.310841 -0.52606,0.412001 -1.86038,1.244399 -4.06548,1.739189 -6.25633,1.403802 -1.1885,-0.181937 -2.47017,-0.690753 -3.5362,-1.403802 -0.65527,-0.438317 -1.85375,-1.636992 -2.29207,-2.292272 -2.00845,-3.002645 -2.00836,-6.792726 2e-4,-9.792526 0.73272,-1.094266 2.08071,-2.272568 3.30095,-2.885371 1.11833,-0.561629 2.63978,-0.922779 3.8871,-0.922779 1.78831,0 3.77308,0.659142 5.17941,1.719995 0.0978,0.07373 0.19243,0.149921 0.28624,0.226728 l 0.008,-2.529112 h -2.88458 -2.88458 l -0.54311,-0.283856 c -0.66428,-0.347023 -1.06749,-0.893251 -1.20605,-1.634304 -0.0563,-0.300881 -0.10212,-1.706235 -0.10212,-3.123007 V 12.08786 h -5.16813 z m 11.96103,0.458414 v 2.610441 c 0,2.554739 0.005,2.615078 0.22215,2.817729 0.21155,0.19709 0.34629,0.20709 2.79294,0.20709 1.41386,0 2.57077,-0.01185 2.57077,-0.02619 0,-0.01435 -1.25682,-1.282179 -2.79294,-2.81753 z m 0.52188,9.957365 c -1.14031,0 -1.84556,0.158722 -2.82209,0.635353 -1.4445,0.705034 -2.40988,1.68983 -3.0998,3.162085 -0.41565,0.886962 -0.56633,1.602956 -0.56633,2.690778 0,1.141987 0.15849,1.844224 0.63913,2.831415 0.97534,2.003296 2.75644,3.287555 5.06695,3.653429 0.43824,0.0694 1.78119,-0.02134 2.34623,-0.158493 0.33373,-0.08101 0.89415,-0.297599 1.32604,-0.512567 1.0939,-0.54447 1.91555,-1.276248 2.5424,-2.257754 l 0.009,-2.87684 c -0.43414,3.095326 -3.21105,5.20333 -6.27875,4.754732 -0.61429,-0.08984 -1.48366,-0.418528 -2.06633,-0.781346 -1.77516,-1.105352 -2.80253,-3.224948 -2.55153,-5.263533 0.466,-3.784734 4.45836,-5.975247 7.86901,-4.317541 1.66255,0.808061 2.79985,2.45447 3.03196,4.233635 l 4e-4,-0.120403 0.008,-2.713391 c -0.66575,-1.05108 -1.56233,-1.829945 -2.76437,-2.393236 -0.88696,-0.415644 -1.60296,-0.566323 -2.69078,-0.566323 z m 2.22126,3.841873 c -0.33773,0.03081 -0.70046,0.354818 -1.74519,1.391902 l -1.25821,1.248887 -0.51237,-0.501459 c -0.54769,-0.535905 -0.78422,-0.640106 -1.25364,-0.552043 -0.27538,0.05167 -0.61068,0.313701 -0.7524,0.587748 -0.1268,0.245211 -0.12795,0.696634 -0.002,0.93369 0.16179,0.305244 1.96282,2.052127 2.18376,2.118108 0.30315,0.09052 0.48576,0.08237 0.76429,-0.03392 0.29918,-0.124888 3.2578,-3.030252 3.55901,-3.494936 0.42574,-0.656773 0.13504,-1.417628 -0.6292,-1.646601 -0.13137,-0.03936 -0.2411,-0.06165 -0.35368,-0.05138 z"
       inkscape:export-filename="results.png"
       inkscape:export-xdpi="96"
       inkscape:export-ydpi="96" /><path
       style="fill:#9a9996;stroke-width:0.383858"
       d="m 142.12113,38.267201 -0.24929,-0.249293 V 27.141491 16.265072 l 0.24929,-0.24929 0.24929,-0.24929 h 5.7429 5.74289 v 2.87879 c 0,2.796872 0.006,2.884296 0.21362,3.072266 0.19751,0.178893 0.42715,0.195729 3.04687,0.223391 l 2.83326,0.02991 v 8.062323 8.062321 l -0.2676,0.210497 c -0.2659,0.209152 -0.32191,0.210496 -8.78977,0.210496 h -8.52217 z m 19.431,-10.389382 c -0.0263,-6.958775 -0.0389,-7.409353 -0.2156,-7.74414 -0.25807,-0.488881 -5.20028,-5.445722 -5.70297,-5.71986 -0.39982,-0.218036 -0.4863,-0.222018 -5.45899,-0.251373 l -5.05273,-0.02983 v -0.558773 c 0,-0.457849 0.045,-0.6038 0.24929,-0.808063 l 0.24929,-0.24929 h 8.54048 8.54048 l 0.2493,0.24929 0.24928,0.24929 v 10.915213 10.915213 l -0.2676,0.210496 c -0.19485,0.153267 -0.41506,0.210497 -0.80994,0.210497 h -0.54234 z m -6.17248,-9.596703 v -2.055688 l 2.03125,2.029345 c 1.11719,1.11614 2.03125,2.0412 2.03125,2.055688 0,0.01449 -0.91406,0.02634 -2.03125,0.02634 h -2.03125 z"
       id="path29"
       inkscape:export-filename="results.png"
       inkscape:export-xdpi="96"
       inkscape:export-ydpi="96" /><path
       style="fill:#9a9996;stroke-width:0.566463"
       d="m 98.804445,217.42752 c -0.846781,-0.30218 -1.543684,-0.90163 -1.897189,-1.63188 l -0.317011,-0.65485 0.03936,-16.87194 0.03936,-16.87193 0.452189,-0.64335 c 0.282249,-0.40158 0.753359,-0.80068 1.253596,-1.062 l 0.801408,-0.41867 h 14.953452 14.95345 l 0.80141,0.41867 c 0.50028,0.26134 0.97131,0.6604 1.2536,1.06203 l 0.45218,0.6434 v 17.06013 17.06013 l -0.45218,0.64338 c -0.28229,0.40165 -0.75332,0.80071 -1.2536,1.06205 l -0.80141,0.41867 -14.85815,-0.007 c -12.02021,-0.005 -14.96557,-0.0449 -15.42051,-0.20726 z m 27.946445,-4.48679 c 0.52941,-0.40222 0.56793,-0.92198 0.56793,-7.66421 0,-6.74223 -0.0385,-7.26198 -0.56793,-7.6642 -0.37749,-0.28681 -24.86497,-0.28681 -25.24246,0 -0.52941,0.40222 -0.56793,0.92197 -0.56793,7.6642 0,6.74223 0.0385,7.26199 0.56793,7.66421 0.37749,0.2868 24.86497,0.2868 25.24246,0 z m -23.41236,-7.66421 v -5.62038 h 10.79113 10.79113 v 5.62038 5.62039 h -10.79113 -10.79113 z m 11.21396,3.26495 c 0.76461,-0.57087 0.92606,-1.14008 0.92606,-3.26495 0,-1.61461 -0.0481,-2.04274 -0.27749,-2.47048 -0.94906,-1.76963 -3.53093,-1.62647 -4.31037,0.23899 -0.284,0.6797 -0.284,3.78329 0,4.46298 0.58862,1.40878 2.45397,1.93523 3.6618,1.03346 z m -2.12319,-1.36582 c -0.38241,-0.42256 -0.36163,-3.47345 0.0261,-3.82429 0.3462,-0.31331 0.98196,-0.31949 1.28893,-0.0125 0.34279,0.34279 0.34279,3.53257 0,3.87538 -0.31801,0.31801 -1.01066,0.29769 -1.31497,-0.0386 z m 8.43322,1.35498 c 0.83138,-0.61963 0.9858,-1.12934 0.9858,-3.25411 0,-1.67884 -0.0414,-2.01879 -0.29976,-2.4573 -0.96069,-1.63099 -3.01066,-1.68377 -4.18729,-0.10787 -0.27852,0.37305 -0.30901,0.62614 -0.30901,2.56512 0,1.93897 0.0305,2.19207 0.30901,2.56513 0.9029,1.20933 2.40615,1.50514 3.50125,0.68897 z m -2.15312,-1.414 c -0.17362,-0.24786 -0.23331,-0.71872 -0.23331,-1.84011 0,-1.77035 0.17661,-2.17321 0.95272,-2.17321 0.77816,0 0.8458,0.17379 0.8458,2.17321 0,1.21068 -0.0597,1.8733 -0.17985,1.99336 -0.3085,0.3085 -1.12522,0.21816 -1.38536,-0.15325 z m -9.70553,1.65202 c 0.12907,-0.12907 0.17985,-1.11833 0.17985,-3.50375 0,-3.86824 0.0512,-3.7353 -1.43936,-3.7353 -1.03937,0 -1.29588,0.14949 -1.29588,0.75519 0,0.44368 0.20143,0.63096 0.82432,0.76638 l 0.41216,0.0896 v 2.724 c 0,2.91654 0.0407,3.08372 0.74938,3.08372 0.21433,0 0.47062,-0.0809 0.56953,-0.17985 z m -3.42807,-14.4602 1.30497,-0.70153 1.28696,0.70153 c 1.6612,0.90551 2.22421,0.92062 2.58217,0.0693 0.14615,-0.34757 0.14434,-0.65874 -0.009,-1.51381 -0.33638,-1.8785 -0.32854,-1.90851 0.74537,-2.85136 1.1729,-1.02974 1.41743,-1.5238 1.07855,-2.17912 -0.26545,-0.5133 -0.40186,-0.56393 -2.20244,-0.8173 l -1.25382,-0.17645 -0.74938,-1.4213 c -0.56783,-1.07697 -0.84776,-1.4554 -1.1555,-1.56205 -0.71004,-0.24608 -1.08231,0.0708 -1.86959,1.59124 l -0.72183,1.3941 -1.25381,0.17544 c -1.84295,0.2579 -1.96408,0.30413 -2.18729,0.83497 -0.28386,0.67512 -0.0945,1.04533 1.10077,2.15196 l 1.02352,0.94762 -0.1955,1.09242 c -0.29763,1.66308 -0.26966,2.30029 0.11674,2.66029 0.48575,0.45254 0.91441,0.38058 2.3589,-0.39593 z m -0.0252,-3.38263 c 0.0583,-0.7232 0.026,-0.82246 -0.39983,-1.22706 -0.58764,-0.5584 -0.58252,-0.68387 0.0279,-0.68387 0.62585,0 1.08578,-0.32391 1.43982,-1.01401 l 0.27994,-0.54569 0.31884,0.62496 c 0.36034,0.70635 0.69194,0.93474 1.35713,0.93474 0.25271,0 0.45948,0.0417 0.45948,0.0926 0,0.0509 -0.20986,0.33164 -0.46636,0.62378 -0.41652,0.47439 -0.45892,0.60867 -0.3967,1.25627 0.0764,0.79484 0.0596,0.8121 -0.48583,0.50029 -0.47869,-0.27364 -1.16996,-0.27364 -1.64865,0 -0.54477,0.31142 -0.55524,0.29932 -0.48579,-0.56204 z m 14.54109,3.38263 1.28695,-0.70153 1.30497,0.70153 c 1.44447,0.77651 1.87314,0.84847 2.35889,0.39593 0.38641,-0.36 0.41437,-0.99721 0.11674,-2.66029 l -0.19549,-1.09242 1.02351,-0.94762 c 1.19526,-1.10663 1.38463,-1.47684 1.10077,-2.15196 -0.2231,-0.53059 -0.34301,-0.57643 -2.18728,-0.83595 l -1.25382,-0.17645 -0.74939,-1.4213 c -0.56783,-1.07697 -0.84777,-1.4554 -1.1555,-1.56205 -0.71003,-0.24608 -1.08231,0.0708 -1.86958,1.59124 l -0.72183,1.3941 -1.34889,0.18539 c -1.63761,0.22508 -1.98407,0.36624 -2.18299,0.88947 -0.22999,0.6049 0.0541,1.11902 1.1505,2.08155 1.08207,0.95 1.0879,0.97292 0.74064,2.91359 -0.16968,0.94822 -0.16894,1.18645 0.004,1.5227 0.40318,0.78064 0.96424,0.75321 2.57708,-0.12593 z m -0.003,-3.32088 c 0.0623,-0.64761 0.0198,-0.78188 -0.3967,-1.25627 -0.2565,-0.29214 -0.46636,-0.57284 -0.46636,-0.62379 0,-0.051 0.20676,-0.0926 0.45948,-0.0926 0.66519,0 0.99678,-0.22839 1.35713,-0.93474 l 0.31883,-0.62496 0.27995,0.54569 c 0.35404,0.69009 0.81397,1.01401 1.43981,1.01401 0.61048,0 0.61561,0.12547 0.028,0.68387 -0.42579,0.4046 -0.45813,0.50386 -0.39983,1.22706 0.0694,0.86136 0.059,0.87346 -0.4858,0.56204 -0.4787,-0.27364 -1.16995,-0.27364 -1.64865,0 -0.54545,0.3118 -0.56221,0.29455 -0.48583,-0.50029 z"
       id="path30"
       inkscape:export-filename="sorteio.png"
       inkscape:export-xdpi="96"
       inkscape:export-ydpi="96" /><g
       id="g38"
       inkscape:export-filename="menu.png"
       inkscape:export-xdpi="96"
       inkscape:export-ydpi="96"
       transform="translate(63.218733,-49.090304)"><rect
         style="fill:none;stroke:none;stroke-width:1.46552;stroke-linecap:round;stroke-linejoin:round;stroke-miterlimit:5;stroke-dasharray:none;paint-order:stroke fill markers"
         id="rect38"
         width="25"
         height="25"
         x="113.04784"
         y="61.459522" /><circle
         style="fill:#9a9996;stroke:none;stroke-width:1.60265;stroke-linecap:round;stroke-linejoin:round;stroke-miterlimit:5;stroke-dasharray:none;paint-order:stroke fill markers"
         id="path31"
         cx="116.36172"
         cy="73.959518"
         r="3.3107445"
         inkscape:export-filename="menu.png"
         inkscape:export-xdpi="96"
         inkscape:export-ydpi="96" /><circle
         style="fill:#9a9996;stroke:none;stroke-width:1.60265;stroke-linecap:round;stroke-linejoin:round;stroke-miterlimit:5;stroke-dasharray:none;paint-order:stroke fill markers"
         id="circle31"
         cx="134.59795"
         cy="73.959518"
         r="3.3107445" /><circle
         style="fill:#9a9996;stroke:none;stroke-width:1.60265;stroke-linecap:round;stroke-linejoin:round;stroke-miterlimit:5;stroke-dasharray:none;paint-order:stroke fill markers"
         id="circle32"
         cx="125.47984"
         cy="73.959518"
         r="3.3107445" /></g><g
       id="g50"
       inkscape:label="roleta"
       inkscape:export-filename="roleta.svg"
       inkscape:export-xdpi="300"
       inkscape:export-ydpi="300"
       transform="translate(-1.8625998,-8.2970354)"><path
         id="path40"
         style="fill:#cdab8f;stroke-width:4.99999;stroke-linecap:round;stroke-linejoin:round;stroke-miterlimit:5;paint-order:stroke fill markers"
         inkscape:transform-center-y="15.087428"
         transform="matrix(1.0055435,0,0,1.3449396,-45.624784,52.033961)"
         d="m 207.70886,55.651793 -26.04779,0 13.0239,-22.558052 z" /><path
         id="path41"
         style="fill:#f9f06b;stroke-width:4.99999;stroke-linecap:round;stroke-linejoin:round;stroke-miterlimit:5;paint-order:stroke fill markers"
         inkscape:transform-center-x="2.0158354e-06"
         inkscape:transform-center-y="-15.087427"
         transform="matrix(-1.0055435,0,0,-1.3449396,345.90362,141.04921)"
         d="m 207.70886,55.651793 -26.04779,0 13.0239,-22.558052 z" /><path
         id="path42"
         style="fill:#f66151;stroke-width:4.99999;stroke-linecap:round;stroke-linejoin:round;stroke-miterlimit:5;paint-order:stroke fill markers"
         inkscape:transform-center-y="15.087428"
         transform="matrix(0,-1.0055435,1.3449396,0,105.63179,292.30578)"
         d="m 207.70886,55.651793 -26.04779,0 13.0239,-22.558052 z" /><path
         id="path43"
         style="fill:#99c1f1;stroke-width:4.99999;stroke-linecap:round;stroke-linejoin:round;stroke-miterlimit:5;paint-order:stroke fill markers"
         inkscape:transform-center-x="2.0158354e-06"
         inkscape:transform-center-y="-15.087427"
         transform="matrix(0,1.0055435,-1.3449396,0,194.64704,-99.222621)"
         d="m 207.70886,55.651793 -26.04779,0 13.0239,-22.558052 z" /><path
         id="path44"
         style="fill:#dc8add;stroke-width:4.99999;stroke-linecap:round;stroke-linejoin:round;stroke-miterlimit:5;paint-order:stroke fill markers"
         inkscape:transform-center-y="15.087428"
         transform="matrix(0.71102663,-0.71102663,0.95101589,0.95101589,-19.758422,203.49614)"
         d="m 207.70886,55.651793 -26.04779,0 13.0239,-22.558052 z" /><path
         id="path45"
         style="fill:#8ff0a4;stroke-width:4.99999;stroke-linecap:round;stroke-linejoin:round;stroke-miterlimit:5;paint-order:stroke fill markers"
         inkscape:transform-center-x="2.0158354e-06"
         inkscape:transform-center-y="-15.087427"
         transform="matrix(-0.71102663,0.71102663,-0.95101589,-0.95101589,320.03726,-10.412967)"
         d="m 207.70886,55.651793 -26.04779,0 13.0239,-22.558052 z" /><path
         id="path46"
         style="fill:#ffbe6f;stroke-width:4.99999;stroke-linecap:round;stroke-linejoin:round;stroke-miterlimit:5;paint-order:stroke fill markers"
         inkscape:transform-center-y="15.087428"
         transform="matrix(-0.71102663,-0.71102663,0.95101589,-0.95101589,257.09396,266.43942)"
         d="m 207.70886,55.651793 -26.04779,0 13.0239,-22.558052 z" /><path
         id="path47"
         style="fill:#ffffff;stroke-width:4.99999;stroke-linecap:round;stroke-linejoin:round;stroke-miterlimit:5;paint-order:stroke fill markers"
         inkscape:transform-center-x="2.0158354e-06"
         inkscape:transform-center-y="-15.087427"
         transform="matrix(0.71102663,0.71102663,-0.95101589,0.95101589,43.184861,-73.356256)"
         d="m 207.70886,55.651793 -26.04779,0 13.0239,-22.558052 z" /><path
         id="path38"
         style="fill:#77767b;stroke:none;stroke-width:1;stroke-linecap:round;stroke-linejoin:round;stroke-miterlimit:5;stroke-dasharray:none;paint-order:stroke fill markers"
         d="M 150.13967,61.66025 A 34.881413,34.881413 0 0 0 115.25808,96.541842 34.881413,34.881413 0 0 0 150.13967,131.42292 34.881413,34.881413 0 0 0 185.02075,96.541842 34.881413,34.881413 0 0 0 150.13967,61.66025 Z m 3.54759,4.95887 a 30.140251,30.140251 0 0 1 0.55087,0.07235 30.172575,30.172575 0 0 1 3.25303,0.628903 30.140251,30.140251 0 0 1 1.02681,0.279052 30.172575,30.172575 0 0 1 3.09439,1.082105 30.140251,30.140251 0 0 1 0.9002,0.379822 30.172575,30.172575 0 0 1 3.04477,1.591117 30.140251,30.140251 0 0 1 0.832,0.510046 30.172575,30.172575 0 0 1 2.81016,2.034501 30.140251,30.140251 0 0 1 0.75448,0.644405 30.172575,30.172575 0 0 1 2.37298,2.309937 30.140251,30.140251 0 0 1 0.73122,0.831474 30.172575,30.172575 0 0 1 1.93218,2.52181 30.140251,30.140251 0 0 1 0.64854,0.982369 30.172575,30.172575 0 0 1 1.56115,2.800862 30.140251,30.140251 0 0 1 0.45526,0.954464 30.172575,30.172575 0 0 1 1.19993,3.156913 30.140251,30.140251 0 0 1 0.31523,1.062984 30.172575,30.172575 0 0 1 0.7028,3.171383 30.140251,30.140251 0 0 1 0.16795,1.198377 30.172575,30.172575 0 0 1 0.22065,3.025655 30.140251,30.140251 0 0 1 0.0181,0.684196 30.140251,30.140251 0 0 1 -0.016,0.609782 30.172575,30.172575 0 0 1 -0.27543,3.500556 30.140251,30.140251 0 0 1 -0.19069,1.20303 30.172575,30.172575 0 0 1 -0.82062,3.4184 30.140251,30.140251 0 0 1 -0.37569,1.15548 30.172575,30.172575 0 0 1 -1.34565,3.24942 30.140251,30.140251 0 0 1 -0.55036,1.08003 30.172575,30.172575 0 0 1 -1.83658,2.99724 30.140251,30.140251 0 0 1 -0.7152,0.98392 30.172575,30.172575 0 0 1 -2.2841,2.67477 30.140251,30.140251 0 0 1 -0.85679,0.8568 30.172575,30.172575 0 0 1 -2.67529,2.28461 30.140251,30.140251 0 0 1 -0.98392,0.71521 30.172575,30.172575 0 0 1 -2.99569,1.83554 30.140251,30.140251 0 0 1 -1.08158,0.55139 30.172575,30.172575 0 0 1 -3.24942,1.34565 30.140251,30.140251 0 0 1 -1.15548,0.37569 30.172575,30.172575 0 0 1 -3.41633,0.82011 30.140251,30.140251 0 0 1 -1.20561,0.1912 30.172575,30.172575 0 0 1 -3.49953,0.27544 30.140251,30.140251 0 0 1 -0.6103,0.016 30.140251,30.140251 0 0 1 -30.14028,-30.140278 30.140251,30.140251 0 0 1 0.37001,-4.698938 30.172575,30.172575 0 0 1 0.0351,-0.158647 30.140251,30.140251 0 0 1 1.0113,-4.211629 30.172575,30.172575 0 0 1 0.51005,-1.334286 30.140251,30.140251 0 0 1 1.16892,-2.82205 30.172575,30.172575 0 0 1 0.96118,-1.716691 30.140251,30.140251 0 0 1 1.30845,-2.135787 30.172575,30.172575 0 0 1 1.38493,-1.80144 30.140251,30.140251 0 0 1 1.42627,-1.669666 30.172575,30.172575 0 0 1 1.77767,-1.724959 30.140251,30.140251 0 0 1 1.50223,-1.283126 30.172575,30.172575 0 0 1 2.14302,-1.547192 30.140251,30.140251 0 0 1 1.53376,-0.939478 30.172575,30.172575 0 0 1 2.47065,-1.286226 30.140251,30.140251 0 0 1 1.51102,-0.625802 30.172575,30.172575 0 0 1 2.75952,-0.960665 30.140251,30.140251 0 0 1 1.42782,-0.342614 30.172575,30.172575 0 0 1 3.02307,-0.580843 30.140251,30.140251 0 0 1 0.30386,-0.02377 l 3.51141,5.745903 z"
         inkscape:export-filename="roleta.svg"
         inkscape:export-xdpi="300"
         inkscape:export-ydpi="300" /><circle
         style="fill:#ffffff;stroke:none;stroke-width:1.02873;stroke-linecap:round;stroke-linejoin:round;stroke-miterlimit:5;stroke-dasharray:none;paint-order:stroke fill markers"
         id="path50"
         cx="150.13942"
         cy="96.541588"
         r="30.309578" /></g></g></svg>
