<?xml version="1.0" encoding="UTF-8" standalone="no"?>
<!-- Created with Inkscape (http://www.inkscape.org/) -->

<svg
   width="65mm"
   height="65mm"
   viewBox="0 0 65 65"
   version="1.1"
   id="svg1"
   xmlns="http://www.w3.org/2000/svg"
   xmlns:svg="http://www.w3.org/2000/svg">
  <defs
     id="defs1" />
  <g
     id="gCenter">
    <path
       id="path40"
       d="M 32.5,32.5 19.656089,62.255559 a 32.5,32.5 0 0 0 12.843913,2.694514 32.5,32.5 0 0 0 12.843326,-2.694514 z"
       style="fill:#cdab8f" />
    <path
       id="path41"
       style="fill:#f9f06b"
       d="M 32.500002,0.04992212 A 32.44985,32.450137 0 0 0 19.656665,2.7450071 L 32.500002,32.498568 45.356499,2.7140952 A 32.44985,32.450137 0 0 0 32.500002,0.04992212 Z" />
    <path
       id="path42"
       style="fill:#f66151"
       d="M 62.285354,19.643674 32.501719,32.500285 62.255013,45.343149 A 32.44985,32.450137 0 0 0 64.950079,32.500285 32.44985,32.450137 0 0 0 62.285354,19.643674 Z" />
    <path
       id="path43"
       style="fill:#99c1f1"
       d="M 2.7449796,19.656841 A 32.44985,32.450137 0 0 0 0.04992509,32.500285 32.44985,32.450137 0 0 0 2.7449796,45.343149 L 32.498285,32.500285 Z" />
    <path
       id="path44"
       style="fill:#dc8add"
       d="m 32.501143,32.50143 11.94459,30.089015 A 32.44985,32.450137 0 0 0 62.589895,44.446122 Z" />
    <path
       id="path45"
       style="fill:#8ff0a4"
       d="M 20.554259,2.4101251 A 32.44985,32.450137 0 0 0 2.4101083,20.553867 L 32.49885,32.499141 Z" />
    <path
       id="path46"
       style="fill:#ffbe6f"
       d="M 44.5,2.3477286 32.5,32.5 62.652284,20.529252 A 32.5,32.5 0 0 0 44.5,2.3477286 Z" />
    <path
       id="path47"
       style="fill:#ffffff"
       d="M 32.5,32.5 2.4101083,44.446122 A 32.5,32.5 0 0 0 20.554259,62.590445 Z" />
  </g>
  <path
     style="fill:#77767b"
     d="M 32.5,0 C 14.550746,0 0,14.550746 0,32.5 0,50.449254 14.550746,65 32.5,65 50.449254,65 65,50.449254 65,32.5 65,14.550746 50.449254,0 32.5,0 Z m 3.305641,4.620332 C 44.12113,5.6359624 60.289731,12.912537 60.582788,32.500329 60.331324,48.378324 47.896349,60.336028 32.500229,60.582899 16.990627,60.582922 4.4175988,48.009907 4.4176027,32.500302 4.4234092,13.693664 21.281917,5.2569455 29.228442,4.6752502 l 3.271687,5.3536438 z"
     id="borda" />
</svg>
